<?xml version="1.0" standalone="no"?>
<!DOCTYPE svg PUBLIC "-//W3C//DTD SVG 20010904//EN"
 "http://www.w3.org/TR/2001/REC-SVG-20010904/DTD/svg10.dtd">
<svg version="1.0" xmlns="http://www.w3.org/2000/svg"
 width="151.000000pt" height="148.000000pt" viewBox="0 0 151.000000 148.000000"
 preserveAspectRatio="xMidYMid meet">

<g transform="translate(0.000000,148.000000) scale(0.100000,-0.100000)"
fill="#000000" stroke="none">
<path d="M725 1307 c-123 -41 -200 -130 -220 -254 -8 -53 16 -149 51 -203 15
-22 28 -40 30 -40 1 0 -7 21 -18 48 -30 66 -30 169 1 237 29 65 91 128 155
157 71 31 181 31 251 0 46 -20 48 -21 25 -2 -73 58 -195 83 -275 57z"/>
<path d="M760 1165 c-25 -8 -58 -26 -75 -39 l-30 -24 60 20 c148 50 302 -13
377 -155 32 -60 33 -192 1 -257 l-22 -45 28 33 c87 102 78 275 -20 386 -68 78
-215 115 -319 81z"/>
<path d="M427 1152 c-36 -40 -61 -115 -61 -187 -1 -162 115 -282 280 -293 82
-5 152 13 199 53 l30 26 -35 -18 c-26 -14 -58 -18 -130 -18 -88 0 -99 2 -150
31 -132 74 -191 243 -132 377 23 52 23 56 -1 29z"/>
<path d="M962 975 c50 -149 -11 -303 -152 -376 -59 -31 -205 -34 -260 -6 l-35
18 28 -25 c40 -36 127 -60 202 -54 105 9 193 67 243 163 23 43 27 62 27 135 0
68 -5 93 -22 125 -41 77 -53 84 -31 20z"/>
<path d="M150 370 c0 -5 14 -10 30 -10 l30 0 0 -85 c0 -69 3 -85 15 -85 12 0
15 16 15 85 l0 85 35 0 c19 0 35 5 35 10 0 6 -33 10 -80 10 -47 0 -80 -4 -80
-10z"/>
<path d="M330 370 c0 -5 5 -10 10 -10 6 0 10 5 10 10 0 6 -4 10 -10 10 -5 0
-10 -4 -10 -10z"/>
<path d="M800 343 c0 -29 -3 -34 -12 -25 -18 18 -53 15 -71 -6 -24 -26 -22
-87 3 -112 21 -21 55 -27 65 -10 3 5 12 7 20 3 13 -4 15 11 15 91 0 57 -4 96
-10 96 -5 0 -10 -17 -10 -37z m-12 -45 c16 -16 16 -70 0 -86 -18 -18 -46 -14
-58 7 -22 42 -6 91 30 91 9 0 21 -5 28 -12z"/>
<path d="M1145 360 c-10 -11 -24 -20 -32 -20 -8 0 -11 -4 -8 -10 3 -5 15 -10
26 -10 17 0 19 -7 19 -65 0 -37 4 -65 10 -65 6 0 10 38 10 95 0 52 -2 95 -3
95 -2 0 -12 -9 -22 -20z"/>
<path d="M1310 370 c0 -6 -11 -16 -25 -22 -14 -6 -25 -15 -25 -20 0 -4 11 -8
25 -8 24 0 25 -2 25 -65 0 -37 4 -65 10 -65 6 0 10 38 10 95 0 57 -4 95 -10
95 -5 0 -10 -5 -10 -10z"/>
<path d="M330 260 c0 -40 4 -70 10 -70 6 0 10 30 10 70 0 40 -4 70 -10 70 -6
0 -10 -30 -10 -70z"/>
<path d="M405 306 c-25 -37 -16 -97 16 -115 30 -17 74 -9 83 15 9 24 -3 33
-15 11 -13 -23 -56 -22 -69 2 -15 30 -14 31 45 31 58 0 63 6 44 43 -16 29 -28
37 -61 37 -18 0 -33 -8 -43 -24z m83 -18 c3 -15 -4 -18 -38 -18 -38 0 -40 1
-30 21 14 25 63 23 68 -3z"/>
<path d="M550 260 c0 -40 4 -70 10 -70 6 0 10 19 10 43 0 50 18 81 46 75 16
-3 20 -13 22 -61 2 -42 7 -57 17 -57 16 0 21 63 9 108 -8 27 -49 40 -76 23
-11 -7 -18 -7 -18 -1 0 5 -4 10 -10 10 -6 0 -10 -30 -10 -70z"/>
<path d="M875 314 c-19 -20 -12 -32 9 -15 19 16 61 10 61 -9 0 -8 -14 -17 -34
-21 -44 -9 -65 -31 -56 -58 7 -25 46 -37 71 -23 12 7 23 6 35 -1 10 -6 22 -7
26 -3 4 5 2 11 -4 13 -8 3 -13 24 -13 57 0 29 -5 57 -12 64 -17 17 -64 15 -83
-4z m65 -99 c-7 -8 -23 -15 -37 -15 -20 0 -24 4 -21 22 2 16 12 24 33 28 33 6
45 -11 25 -35z"/>
</g>
</svg>
